<?xml version="1.0" encoding="utf-8"?>
<!-- Generator: Adobe Illustrator 27.2.0, SVG Export Plug-In . SVG Version: 6.00 Build 0)  -->
<svg version="1.1" id="Layer_1" xmlns="http://www.w3.org/2000/svg" xmlns:xlink="http://www.w3.org/1999/xlink" x="0px" y="0px"
	 viewBox="0 0 1000 150" style="enable-background:new 0 0 1000 150;" xml:space="preserve">
<g>
	<path d="M14.19,11.2H32v29.26h16.73v14.38H32v68.4c0,3.65,1.24,6.1,3.72,7.34c1.37,0.72,3.65,1.08,6.85,1.08
		c0.85,0,1.76-0.02,2.74-0.06c0.98-0.04,2.12-0.15,3.42-0.33v13.99c-2.02,0.59-4.13,1.01-6.31,1.27c-2.19,0.26-4.55,0.39-7.09,0.39
		c-8.22,0-13.8-2.1-16.73-6.31c-2.94-4.21-4.4-9.67-4.4-16.39V54.84H0V40.46h14.19V11.2z"/>
	<path d="M70.84,40.46h16.73v18.1c1.37-3.52,4.73-7.81,10.08-12.87c5.35-5.05,11.51-7.58,18.49-7.58c0.33,0,0.88,0.03,1.66,0.1
		c0.78,0.07,2.12,0.2,4.01,0.39v18.59c-1.04-0.2-2.01-0.33-2.89-0.39c-0.88-0.06-1.84-0.1-2.89-0.1c-8.87,0-15.69,2.85-20.45,8.56
		c-4.76,5.71-7.14,12.28-7.14,19.72v60.27H70.84V40.46z"/>
	<path d="M201.81,43.35c6.94,3.49,12.22,8.01,15.85,13.55c3.5,5.28,5.83,11.45,7,18.49c1.04,4.83,1.56,12.52,1.56,23.09H150
		c0.32,10.66,2.82,19.22,7.48,25.66c4.66,6.44,11.88,9.66,21.65,9.66c9.13,0,16.41-3.05,21.84-9.14c3.04-3.54,5.2-7.63,6.47-12.29
		h17.32c-0.46,3.85-1.97,8.14-4.55,12.87c-2.58,4.73-5.45,8.6-8.62,11.6c-5.31,5.22-11.88,8.74-19.71,10.57
		c-4.21,1.04-8.97,1.57-14.28,1.57c-12.96,0-23.95-4.75-32.96-14.24c-9.01-9.49-13.52-22.78-13.52-39.87c0-16.83,4.54-30.5,13.61-41
		c9.08-10.5,20.94-15.75,35.59-15.75C187.71,38.11,194.87,39.86,201.81,43.35z M208.12,84.49c-0.71-7.63-2.36-13.73-4.95-18.3
		c-4.79-8.48-12.78-12.72-23.96-12.72c-8.02,0-14.75,2.92-20.18,8.76c-5.43,5.84-8.31,13.26-8.64,22.26H208.12z"/>
	<path d="M248.53,40.46h16.73v14.87c4.96-6.13,10.21-10.53,15.75-13.21c5.54-2.67,11.71-4.01,18.49-4.01
		c14.87,0,24.92,5.19,30.14,15.56c2.87,5.68,4.31,13.8,4.31,24.36v67.22h-17.91V79.21c0-6.39-0.95-11.55-2.84-15.46
		c-3.13-6.52-8.81-9.78-17.03-9.78c-4.18,0-7.6,0.43-10.27,1.27c-4.83,1.44-9.07,4.31-12.72,8.61c-2.94,3.46-4.84,7.03-5.72,10.71
		c-0.88,3.69-1.32,8.95-1.32,15.8v54.89h-17.61V40.46z"/>
	<path d="M417.55,43.69c3.12,1.96,6.66,5.38,10.62,10.27V1.03h16.93v144.23h-15.85v-14.58c-4.09,6.46-8.94,11.12-14.52,13.99
		c-5.59,2.87-11.99,4.31-19.2,4.31c-11.63,0-21.7-4.91-30.22-14.73c-8.51-9.82-12.77-22.88-12.77-39.19
		c0-15.26,3.88-28.49,11.65-39.68c7.77-11.19,18.86-16.78,33.29-16.78C405.47,38.6,412.16,40.3,417.55,43.69z M378.24,122.26
		c4.74,7.57,12.33,11.35,22.78,11.35c8.11,0,14.78-3.51,20.01-10.52c5.22-7.01,7.84-17.07,7.84-30.19c0-13.24-2.69-23.04-8.08-29.4
		c-5.39-6.36-12.04-9.54-19.96-9.54c-8.83,0-15.98,3.39-21.47,10.18c-5.48,6.78-8.23,16.77-8.23,29.94
		C371.13,105.3,373.5,114.69,378.24,122.26z"/>
	<path d="M471.43,40.46h17.42v14.87c4.17-5.15,7.96-8.9,11.35-11.25c5.81-3.98,12.39-5.97,19.77-5.97c8.35,0,15.07,2.05,20.16,6.16
		c2.87,2.35,5.48,5.81,7.83,10.37c3.91-5.61,8.51-9.77,13.8-12.48c5.28-2.71,11.22-4.06,17.81-4.06c14.09,0,23.68,5.09,28.77,15.26
		c2.74,5.48,4.11,12.85,4.11,22.11v69.77h-18.3v-72.8c0-6.98-1.75-11.77-5.23-14.38c-3.49-2.61-7.75-3.91-12.77-3.91
		c-6.92,0-12.87,2.32-17.86,6.95c-4.99,4.63-7.49,12.36-7.49,23.19v60.96h-17.91v-68.4c0-7.11-0.85-12.3-2.54-15.56
		c-2.67-4.89-7.67-7.34-14.97-7.34c-6.65,0-12.71,2.58-18.15,7.73c-5.45,5.15-8.17,14.48-8.17,27.98v55.58h-17.61V40.46z"/>
	<path d="M703.08,43.35c6.94,3.49,12.22,8.01,15.85,13.55c3.5,5.28,5.83,11.45,7,18.49c1.04,4.83,1.56,12.52,1.56,23.09h-76.22
		c0.32,10.66,2.82,19.22,7.48,25.66c4.66,6.44,11.88,9.66,21.65,9.66c9.13,0,16.41-3.05,21.84-9.14c3.04-3.54,5.2-7.63,6.47-12.29
		h17.32c-0.46,3.85-1.97,8.14-4.55,12.87c-2.58,4.73-5.45,8.6-8.62,11.6c-5.31,5.22-11.88,8.74-19.71,10.57
		c-4.21,1.04-8.97,1.57-14.28,1.57c-12.96,0-23.95-4.75-32.96-14.24s-13.52-22.78-13.52-39.87c0-16.83,4.54-30.5,13.61-41
		c9.08-10.5,20.94-15.75,35.59-15.75C688.98,38.11,696.15,39.86,703.08,43.35z M709.39,84.49c-0.71-7.63-2.36-13.73-4.95-18.3
		c-4.79-8.48-12.78-12.72-23.96-12.72c-8.02,0-14.75,2.92-20.18,8.76c-5.43,5.84-8.31,13.26-8.63,22.26H709.39z"/>
	<path d="M807.38,43.69c3.12,1.96,6.66,5.38,10.62,10.27V1.03h16.93v144.23h-15.85v-14.58c-4.09,6.46-8.94,11.12-14.52,13.99
		c-5.59,2.87-11.99,4.31-19.2,4.31c-11.63,0-21.7-4.91-30.22-14.73c-8.51-9.82-12.77-22.88-12.77-39.19
		c0-15.26,3.88-28.49,11.65-39.68c7.77-11.19,18.86-16.78,33.29-16.78C795.29,38.6,801.99,40.3,807.38,43.69z M768.06,122.26
		c4.74,7.57,12.33,11.35,22.78,11.35c8.11,0,14.78-3.51,20.01-10.52c5.22-7.01,7.84-17.07,7.84-30.19c0-13.24-2.69-23.04-8.08-29.4
		c-5.39-6.36-12.04-9.54-19.96-9.54c-8.83,0-15.98,3.39-21.47,10.18c-5.48,6.78-8.23,16.77-8.23,29.94
		C760.96,105.3,763.33,114.69,768.06,122.26z"/>
	<path d="M861.25,1.52h17.91v19.96h-17.91V1.52z M861.25,40.95h17.91v104.31h-17.91V40.95z"/>
	<path d="M961.94,81.83c4.04-0.52,6.75-2.21,8.12-5.08c0.78-1.57,1.17-3.83,1.17-6.78c0-6.02-2.13-10.39-6.4-13.11
		c-4.26-2.72-10.37-4.08-18.31-4.08c-9.18,0-15.69,2.49-19.53,7.47c-2.15,2.76-3.55,6.85-4.2,12.29h-16.44
		c0.33-12.95,4.51-21.96,12.56-27.03c8.05-5.07,17.38-7.6,28-7.6c12.31,0,22.32,2.35,30,7.04c7.62,4.7,11.43,12,11.43,21.92v60.38
		c0,1.83,0.37,3.29,1.13,4.4c0.75,1.11,2.33,1.66,4.75,1.66c0.78,0,1.66-0.05,2.64-0.15c0.98-0.1,2.02-0.24,3.13-0.44v13.01
		c-2.74,0.78-4.83,1.27-6.26,1.47c-1.44,0.2-3.39,0.29-5.87,0.29c-6.07,0-10.47-2.15-13.21-6.46c-1.44-2.28-2.45-5.51-3.03-9.69
		c-3.59,4.7-8.74,8.77-15.46,12.23c-6.72,3.46-14.12,5.18-22.21,5.18c-9.72,0-17.66-2.95-23.83-8.84
		c-6.16-5.9-9.25-13.27-9.25-22.13c0-9.71,3.03-17.23,9.1-22.57c6.07-5.34,14.02-8.63,23.88-9.87L961.94,81.83z M924.85,129.41
		c3.72,2.93,8.12,4.39,13.21,4.39c6.2,0,12.2-1.43,18-4.3c9.78-4.76,14.68-12.54,14.68-23.35V91.99c-2.15,1.37-4.92,2.52-8.3,3.44
		c-3.38,0.92-6.71,1.57-9.96,1.96l-10.64,1.37c-6.38,0.85-11.18,2.18-14.39,4c-5.45,3.06-8.17,7.94-8.17,14.64
		C919.28,122.48,921.14,126.48,924.85,129.41z"/>
</g>
</svg>
